<?xml version="1.0" encoding="utf-8"?>
<!-- Generator: Adobe Illustrator 20.0.0, SVG Export Plug-In . SVG Version: 6.00 Build 0)  -->
<svg version="1.1" id="Layer_1" xmlns="http://www.w3.org/2000/svg" xmlns:xlink="http://www.w3.org/1999/xlink" x="0px" y="0px"
	 viewBox="0 0 53.7 53.8" style="enable-background:new 0 0 53.7 53.8;" xml:space="preserve">
<style type="text/css">
	.st0{fill:#53565A;}
</style>
<g>
	<path class="st0" d="M26.9,0C12,0,0,12,0,26.9c0,14.8,12,26.9,26.9,26.9c14.8,0,26.9-12,26.9-26.9C53.7,12,41.7,0,26.9,0L26.9,0z
		 M16.2,36.6c-1,0-1.9-0.8-1.9-1.9c0-1,0.8-1.9,1.9-1.9c1,0,1.9,0.8,1.9,1.9C18,35.8,17.2,36.6,16.2,36.6L16.2,36.6z M16.2,28.7
		c-1,0-1.9-0.8-1.9-1.9c0-1,0.8-1.9,1.9-1.9c1,0,1.9,0.8,1.9,1.9C18,27.9,17.2,28.7,16.2,28.7L16.2,28.7z M16.2,20.8
		c-1,0-1.9-0.8-1.9-1.9s0.8-1.9,1.9-1.9c1,0,1.9,0.8,1.9,1.9S17.2,20.8,16.2,20.8L16.2,20.8z M39.4,36.5H22c-1,0-1.9-0.8-1.9-1.9
		c0-1,0.8-1.9,1.9-1.9h17.4c1,0,1.9,0.8,1.9,1.9C41.2,35.7,40.4,36.5,39.4,36.5L39.4,36.5z M39.4,28.7H22c-1,0-1.9-0.8-1.9-1.9
		c0-1,0.8-1.9,1.9-1.9h17.4c1,0,1.9,0.8,1.9,1.9C41.2,27.8,40.4,28.7,39.4,28.7L39.4,28.7z M39.4,20.8H22c-1,0-1.9-0.8-1.9-1.9
		c0-1,0.8-1.9,1.9-1.9h17.4c1,0,1.9,0.8,1.9,1.9C41.2,20,40.4,20.8,39.4,20.8L39.4,20.8z"/>
</g>
</svg>
