<?xml version="1.0" encoding="utf-8"?>
<!-- Generator: Adobe Illustrator 20.0.0, SVG Export Plug-In . SVG Version: 6.00 Build 0)  -->
<svg version="1.1" id="Layer_1" xmlns="http://www.w3.org/2000/svg" xmlns:xlink="http://www.w3.org/1999/xlink" x="0px" y="0px"
	 viewBox="0 0 26.9 26.8" style="enable-background:new 0 0 26.9 26.8;" xml:space="preserve">
<style type="text/css">
	.st0{fill:#B6996F;}
	.st1{fill:#53565A;}
</style>
<path class="st0" d="M4.4,6.9l0.4,13.9h16.3l2.3-8.1c0,0-4.6-8.2-5.2-8.2S9.8,5.3,9.1,5.3C8.4,5.4,4.4,6.9,4.4,6.9z"/>
<g>
	<path class="st1" d="M13.5,0C6,0,0,6,0,13.5C0,20.9,6,27,13.5,27C20.9,27,27,21,27,13.5C26.9,6,20.9,0,13.5,0L13.5,0z M8.1,18.3
		c-0.5,0-1-0.4-1-1c0-0.5,0.4-1,1-1c0.5,0,1,0.4,1,1C9,17.9,8.6,18.3,8.1,18.3L8.1,18.3z M8.1,14.4c-0.5,0-1-0.4-1-1
		c0-0.5,0.4-1,1-1c0.5,0,1,0.4,1,1C9,14,8.6,14.4,8.1,14.4L8.1,14.4z M8.1,10.4c-0.5,0-1-0.4-1-1s0.4-1,1-1c0.5,0,1,0.4,1,1
		S8.6,10.4,8.1,10.4L8.1,10.4z M19.7,18.3H11c-0.5,0-1-0.4-1-1c0-0.5,0.4-1,1-1h8.7c0.5,0,1,0.4,1,1C20.6,17.9,20.2,18.3,19.7,18.3
		L19.7,18.3z M19.7,14.4H11c-0.5,0-1-0.4-1-1c0-0.5,0.4-1,1-1h8.7c0.5,0,1,0.4,1,1C20.6,13.9,20.2,14.4,19.7,14.4L19.7,14.4z
		 M19.7,10.4H11c-0.5,0-1-0.4-1-1c0-0.5,0.4-1,1-1h8.7c0.5,0,1,0.4,1,1C20.6,10,20.2,10.4,19.7,10.4L19.7,10.4z"/>
</g>
</svg>
